<?xml version="1.0" standalone="no"?>
<!DOCTYPE svg PUBLIC "-//W3C//DTD SVG 20010904//EN"
 "http://www.w3.org/TR/2001/REC-SVG-20010904/DTD/svg10.dtd">
<svg version="1.0" xmlns="http://www.w3.org/2000/svg"
 width="777.000000pt" height="777.000000pt" viewBox="0 0 777.000000 777.000000"
 preserveAspectRatio="xMidYMid meet">
<metadata>
Created by potrace 1.14, written by Peter Selinger 2001-2017
</metadata>
<g transform="translate(0.000000,777.000000) scale(0.100000,-0.100000)"
fill="#000000" stroke="none">
<path d="M3080 6027 c-3 -3 -36 -7 -75 -11 -75 -6 -86 -8 -210 -32 -608 -117
-1218 -476 -1579 -929 -275 -344 -460 -829 -521 -1360 -11 -94 -14 -481 -4
-575 15 -144 41 -300 51 -300 16 0 188 120 189 133 2 21 -3 80 -8 101 -2 12
-6 113 -8 226 -3 184 2 279 20 391 l6 37 64 -33 c35 -19 88 -41 117 -50 l53
-17 -1 -197 c-2 -200 3 -291 15 -291 4 0 70 42 148 93 78 50 163 105 190 122
173 106 276 165 289 165 8 0 14 4 14 8 0 4 14 16 30 25 17 10 30 16 30 13 0
-2 23 11 51 30 28 19 55 34 60 34 4 0 8 109 9 243 2 409 8 538 28 561 21 23
500 258 512 251 5 -3 12 0 17 8 13 20 188 97 223 97 20 0 40 -9 55 -25 l25
-24 1 -286 c1 -157 3 -289 4 -295 1 -5 3 -25 4 -42 3 -65 1 -65 247 32 327
130 494 188 789 273 327 94 433 120 504 121 55 1 58 0 143 -69 48 -38 90 -80
94 -92 3 -13 10 -20 15 -17 17 10 209 -164 249 -225 l16 -24 119 17 c66 8 147
18 180 22 33 3 66 7 73 10 7 2 81 7 163 10 l151 7 31 -35 c80 -89 166 -178
173 -178 13 0 -6 145 -31 239 -57 213 -222 533 -412 799 -377 529 -909 862
-1575 986 -73 14 -162 28 -198 32 -36 3 -74 8 -85 11 -26 6 -439 15 -445 10z
m500 -261 c139 -15 269 -39 389 -72 143 -39 293 -92 302 -107 9 -13 -13 -93
-40 -144 -25 -50 -17 -51 -162 29 -223 123 -453 208 -684 252 -107 21 -133 24
-182 25 -24 1 -43 5 -43 10 0 6 19 11 43 13 71 5 308 1 377 -6z m-449 -43 c5
-5 2 -32 -7 -63 -32 -107 -174 -213 -359 -269 -334 -101 -569 -87 -578 35 -2
25 6 34 53 66 133 90 509 220 682 234 40 4 74 7 75 8 7 6 128 -5 134 -11z
m224 -19 c86 -14 258 -56 300 -74 11 -5 63 -25 115 -46 101 -39 302 -135 296
-141 -2 -2 -45 4 -97 13 -206 36 -498 49 -662 30 -56 -7 -58 -6 -125 42 l-70
48 19 35 c10 18 21 53 25 77 l7 44 51 -7 c28 -3 92 -13 141 -21z m1075 -182
c294 -148 522 -317 724 -539 l28 -31 -18 -31 c-10 -17 -21 -31 -24 -31 -3 0
-45 35 -95 76 -166 139 -412 287 -590 353 -33 13 -69 27 -80 31 -11 5 -45 16
-75 26 -30 9 -56 18 -58 19 -1 1 9 27 22 57 14 31 28 72 31 92 4 20 10 36 14
36 3 0 58 -26 121 -58z m-1240 -50 c-36 -5 -251 -49 -275 -57 -11 -4 6 8 37
25 32 18 77 51 100 74 l43 41 60 -40 c54 -36 57 -40 35 -43z m-1021 -77 c13
-37 51 -70 92 -80 l25 -6 -65 -132 c-62 -125 -70 -135 -135 -187 -142 -113
-277 -251 -421 -432 -13 -16 -20 -15 -104 13 -50 17 -91 35 -91 41 0 12 55
113 112 207 79 128 183 257 307 382 110 109 245 228 261 229 4 0 12 -16 19
-35z m-169 -52 c-221 -195 -409 -432 -524 -660 -14 -28 -30 -54 -35 -58 -10
-6 -78 32 -113 63 -22 19 -16 31 80 151 94 117 226 250 345 345 89 71 294 216
306 216 3 0 -23 -26 -59 -57z m645 -22 c-69 -31 -86 -34 -79 -17 3 9 11 16 18
17 22 1 60 10 65 14 2 3 11 5 20 4 9 0 -2 -8 -24 -18z m-102 -29 c-2 -10 -30
-31 -61 -46 -64 -32 -215 -120 -251 -148 -13 -10 -26 -16 -28 -14 -2 2 20 50
50 107 l55 104 93 6 c52 3 106 6 121 7 21 2 25 -2 21 -16z m2762 -497 c40 -55
94 -135 119 -178 49 -83 156 -291 156 -304 0 -4 -30 42 -67 102 -84 140 -169
253 -272 365 l-81 88 17 31 c17 28 19 29 36 13 11 -9 52 -62 92 -117z m-3960
-149 c24 -19 54 -38 66 -41 11 -4 18 -12 15 -18 -55 -119 -138 -353 -161 -453
-34 -146 -47 -214 -61 -308 -8 -61 -17 -120 -19 -131 -2 -11 -4 -30 -4 -42
l-1 -23 -66 25 c-36 14 -88 37 -116 52 l-50 27 7 46 c18 120 79 319 162 530
75 190 162 370 179 370 2 0 24 -15 49 -34z m211 -100 l81 -27 -64 -97 c-125
-189 -251 -475 -308 -701 -26 -103 -28 -106 -48 -98 -11 4 -12 18 -6 64 4 32
10 81 12 108 3 28 11 75 17 105 6 30 13 69 16 85 33 193 177 604 207 592 7 -2
48 -16 93 -31z m-326 -964 c0 -10 -4 -43 -10 -73 -5 -30 -11 -74 -14 -97 -7
-69 -14 -60 -11 15 2 37 4 92 4 121 1 39 5 52 16 52 8 0 15 -8 15 -18z"/>
<path d="M2446 4529 c-176 -76 -323 -144 -327 -151 -4 -7 -10 -112 -14 -233
-3 -121 -8 -238 -10 -260 -6 -73 -9 -255 -4 -257 2 -2 20 10 40 26 20 16 51
34 70 40 19 7 121 50 227 97 l192 84 -5 130 c-4 72 -8 146 -10 165 -2 19 -5
64 -6 98 -1 35 -7 66 -13 68 -6 2 -58 -7 -116 -20 -58 -13 -106 -23 -108 -22
-1 2 70 34 158 71 89 37 163 66 165 63 3 -2 25 -105 49 -227 24 -122 47 -225
50 -228 3 -4 6 152 5 345 -1 254 -5 352 -13 351 -6 -1 -155 -63 -330 -140z"/>
<path d="M4305 4435 c-208 -36 -703 -202 -1235 -415 -519 -208 -1066 -499
-1690 -903 -304 -196 -920 -634 -920 -654 0 -5 5 -2 63 34 169 105 362 213
381 213 31 0 94 -47 146 -109 24 -28 48 -51 54 -51 7 0 50 22 96 48 47 27 139
77 205 111 145 77 243 133 275 159 l25 20 -71 71 c-49 50 -78 71 -95 71 -13
-1 -121 -50 -239 -110 -118 -59 -217 -107 -219 -105 -9 9 138 94 294 170 204
100 206 100 231 77 81 -73 180 -152 191 -152 8 0 37 12 65 26 62 31 378 222
397 239 20 19 5 38 -78 100 -51 39 -82 55 -104 55 -32 1 -32 1 16 26 l48 25
94 -86 c53 -47 104 -85 115 -85 20 0 172 74 300 146 36 20 85 47 110 61 25 13
49 28 54 33 9 9 -55 76 -121 127 l-32 25 -63 -20 c-35 -12 -72 -23 -83 -27
-11 -3 21 15 70 39 50 25 93 45 97 46 4 0 50 -38 103 -85 l95 -85 48 19 c26
11 85 37 132 59 47 22 135 61 195 87 61 26 115 52 122 58 15 15 7 26 -74 96
-67 57 -66 57 -163 35 -14 -3 2 7 35 21 48 20 65 23 87 16 33 -12 129 -84 172
-130 17 -17 35 -31 42 -31 16 0 313 112 398 149 36 17 66 35 66 40 0 12 -66
75 -132 126 l-46 36 -63 -15 c-35 -9 -75 -18 -89 -21 -14 -3 26 13 88 35 l113
40 32 -22 c84 -58 176 -135 190 -159 13 -24 18 -26 53 -19 63 12 121 28 266
76 130 43 137 47 127 66 -15 28 -147 158 -162 159 -20 2 -40 -1 -77 -11 -41
-11 -239 -69 -257 -75 -24 -8 -13 32 11 43 26 12 305 82 344 87 18 2 47 -20
123 -96 54 -53 108 -100 119 -104 26 -8 226 33 240 50 11 13 -23 51 -110 121
-19 16 -37 31 -40 34 -42 45 -238 194 -263 199 -18 4 -63 2 -102 -4z"/>
<path d="M5430 4069 c-442 -60 -1005 -180 -1486 -318 -572 -164 -1019 -341
-1644 -652 -353 -176 -846 -445 -890 -486 -8 -7 88 34 214 92 126 58 234 105
240 105 6 0 53 -42 104 -92 52 -51 89 -83 83 -70 -10 19 -9 22 9 22 46 0 626
227 641 252 9 13 -8 31 -86 90 -34 25 -72 48 -85 50 -22 3 -20 4 13 15 l38 11
98 -94 c99 -94 121 -110 101 -75 -14 27 -13 51 3 51 16 0 159 54 320 120 93
38 127 57 127 69 0 10 -18 43 -40 74 -66 91 -29 82 67 -16 47 -48 86 -87 87
-87 2 0 1 12 -2 28 -2 15 -2 24 2 20 16 -14 486 168 486 188 0 11 -23 50 -53
87 -16 21 -27 40 -25 42 5 5 54 -41 132 -125 27 -28 51 -48 55 -43 3 5 26 15
51 22 57 16 193 69 333 128 121 51 121 51 66 127 -16 22 -27 42 -24 44 7 7 33
-17 108 -102 60 -69 68 -75 62 -48 -6 30 -5 31 32 37 69 12 346 74 434 98 l85
23 27 -35 c28 -35 34 -31 18 12 -9 23 -7 24 67 36 43 7 148 31 235 52 87 22
163 37 168 34 5 -4 23 -26 40 -51 l31 -46 122 7 c66 4 126 10 133 14 7 4 -5
24 -35 57 -26 27 -87 95 -137 149 -192 212 -173 195 -219 194 -22 -1 -70 -5
-106 -10z"/>
<path d="M6289 3546 c-2 -2 -75 -7 -161 -10 -86 -4 -167 -9 -180 -11 -13 -2
-63 -6 -113 -10 -81 -5 -181 -15 -330 -31 -333 -36 -761 -103 -1016 -158 -269
-58 -732 -206 -1379 -439 -258 -93 -891 -329 -1160 -432 -544 -209 -671 -253
-880 -306 -162 -41 -290 -66 -387 -75 -32 -3 -64 -7 -71 -10 -20 -6 -290 -6
-342 1 l-45 5 45 -15 c25 -8 72 -20 105 -25 33 -6 71 -13 85 -16 14 -3 79 -8
145 -11 119 -5 120 -6 157 -39 89 -80 309 -156 518 -179 30 -4 66 -9 80 -12
42 -9 639 -11 745 -2 92 7 279 28 315 34 8 1 35 6 60 10 189 29 370 70 720
165 355 96 556 140 748 165 180 23 224 26 482 40 63 3 142 8 175 10 141 9 413
18 585 19 336 1 528 -18 680 -68 l71 -23 221 441 c188 375 250 497 365 728 13
28 13 28 -19 23 -18 -2 -85 -9 -148 -15 -63 -6 -133 -13 -155 -15 -218 -26
-547 -65 -575 -69 -19 -3 -114 -17 -210 -31 -264 -38 -227 -32 -450 -70 -281
-47 -788 -146 -842 -165 -16 -5 -28 -6 -28 -2 0 9 300 103 470 147 113 29 390
92 480 109 21 4 242 44 335 61 36 7 276 44 325 51 19 2 45 7 58 10 12 2 44 7
70 10 26 3 57 7 68 9 12 2 48 7 80 10 33 4 68 9 79 11 11 2 43 6 70 9 28 3 61
7 75 10 14 2 54 7 90 10 36 4 76 8 90 10 24 4 58 7 180 20 30 3 71 8 90 10 19
2 69 7 110 11 41 3 93 8 115 10 22 2 99 6 172 9 72 3 151 7 175 9 23 2 77 8
118 12 41 4 81 7 88 7 6 0 12 4 12 7 0 4 -60 13 -132 19 -73 7 -146 15 -163
18 -34 6 -860 15 -866 9z"/>
<path d="M7233 3201 c-201 -164 -384 -361 -500 -538 -82 -125 -266 -519 -343
-733 -13 -36 -27 -69 -31 -74 -5 -5 -53 0 -116 12 -108 21 -262 47 -338 56
-22 3 -58 8 -80 10 -22 3 -65 8 -95 11 -62 5 -160 15 -205 20 -215 24 -835 24
-1120 0 -296 -25 -474 -52 -900 -135 -503 -99 -931 -177 -1060 -194 -22 -2
-69 -9 -105 -15 -71 -11 -104 -15 -255 -31 -219 -23 -278 -27 -480 -28 -271
-1 -432 17 -614 69 -153 44 -243 84 -370 168 -23 15 -24 14 -13 -5 28 -52 202
-180 322 -237 181 -85 383 -136 640 -162 115 -11 477 -12 590 -1 25 2 86 7
135 11 114 8 156 11 340 31 263 27 283 29 590 69 143 19 366 48 495 65 129 16
249 32 265 34 17 3 62 8 100 11 39 4 77 9 85 10 8 2 51 6 95 10 44 4 89 9 100
11 11 2 65 7 120 10 55 3 111 8 125 11 14 3 306 7 650 8 732 3 1004 -11 1196
-61 31 -8 58 -13 60 -11 2 2 26 91 53 198 104 409 232 740 370 949 34 52 370
490 398 518 13 14 16 22 9 22 -3 0 -54 -40 -113 -89z"/>
</g>
</svg>
